<svg width="16" height="21" viewBox="0 0 16 21" fill="none" xmlns="http://www.w3.org/2000/svg">
<path d="M7.9978 0.953186C5.2364 0.953186 2.9978 3.19179 2.9978 5.95319C2.9978 8.71459 5.2364 10.9532 7.9978 10.9532C10.7592 10.9532 12.9978 8.71459 12.9978 5.95319C12.9978 3.19179 10.7592 0.953186 7.9978 0.953186ZM4.4666 12.2657C1.8523 12.9802 -0.00219727 15.2534 -0.00219727 17.9532V19.9532C-0.00219727 20.5055 0.445503 20.9532 0.997803 20.9532H14.9978C15.5501 20.9532 15.9978 20.5055 15.9978 19.9532V17.9532C15.9978 15.2534 14.1433 12.9802 11.529 12.2657C11.3049 12.2044 11.0847 12.2327 10.8728 12.3282C9.95731 12.7408 8.9827 12.9532 7.9978 12.9532C7.0129 12.9532 6.0383 12.7408 5.1228 12.3282C4.9109 12.2327 4.6907 12.2044 4.4666 12.2657Z" fill="white"/>
</svg>
