<svg width="333" height="48" viewBox="0 0 333 48" fill="none" xmlns="http://www.w3.org/2000/svg">
<rect width="48" height="48" rx="12" fill="#911016"/>
<path d="M20.755 30.5V19.67H20.565L13.44 30.5H9.83V17.2H12.585V28.03H12.775L19.9 17.2H23.51V30.5H20.755ZM31.4967 18.245C30.5847 18.245 29.7297 18.378 28.9317 18.644C28.1463 18.8973 27.3927 19.3343 26.6707 19.955L25.8157 18.815C26.5377 18.1943 27.399 17.7067 28.3997 17.352C29.4003 16.9973 30.496 16.82 31.6867 16.82C32.662 16.82 33.517 16.9087 34.2517 17.086C34.9863 17.2633 35.6007 17.5103 36.0947 17.827C36.5887 18.1437 36.956 18.5173 37.1967 18.948C37.45 19.3787 37.5767 19.841 37.5767 20.335C37.5767 21.1457 37.3803 21.817 36.9877 22.349C36.595 22.8683 35.968 23.2737 35.1067 23.565C36.0567 23.8057 36.7977 24.211 37.3297 24.781C37.8743 25.3383 38.1467 26.073 38.1467 26.985C38.1467 27.5297 38.0137 28.0427 37.7477 28.524C37.4943 28.9927 37.089 29.4043 36.5317 29.759C35.987 30.101 35.284 30.3733 34.4227 30.576C33.5613 30.7787 32.5227 30.88 31.3067 30.88C30.0653 30.88 28.919 30.6837 27.8677 30.291C26.829 29.8983 25.9487 29.3663 25.2267 28.695L26.1767 27.555C26.8987 28.2263 27.665 28.714 28.4757 29.018C29.2863 29.3093 30.1667 29.455 31.1167 29.455C31.8513 29.455 32.4783 29.3917 32.9977 29.265C33.517 29.1257 33.935 28.9357 34.2517 28.695C34.581 28.4543 34.8217 28.1757 34.9737 27.859C35.1257 27.5297 35.2017 27.175 35.2017 26.795C35.2017 26.035 34.961 25.4523 34.4797 25.047C33.9983 24.629 33.2573 24.42 32.2567 24.42H28.2667V22.995H31.8767C33.7133 22.995 34.6317 22.1717 34.6317 20.525C34.6317 19.8537 34.3593 19.309 33.8147 18.891C33.27 18.4603 32.4973 18.245 31.4967 18.245Z" fill="white"/>
<path d="M80.125 32.5V18.25H79.875L70.5 32.5H65.75V15H69.375V29.25H69.625L79 15H83.75V32.5H80.125ZM101.009 19.5V32.5H97.5088V26.75H90.7588V32.5H87.2588V19.5H90.7588V25H97.5088V19.5H101.009ZM111.52 19C112.053 19 112.586 19.05 113.12 19.15C113.653 19.2333 114.161 19.3583 114.645 19.525C115.145 19.675 115.603 19.8667 116.02 20.1C116.453 20.3333 116.828 20.5917 117.145 20.875L116.145 22.375C115.461 21.8583 114.761 21.4583 114.045 21.175C113.345 20.8917 112.586 20.75 111.77 20.75C111.17 20.75 110.62 20.85 110.12 21.05C109.62 21.2333 109.186 21.5417 108.82 21.975C108.453 22.3917 108.161 22.9333 107.945 23.6C107.745 24.2667 107.645 25.0667 107.645 26C107.645 26.9333 107.745 27.7333 107.945 28.4C108.161 29.0667 108.461 29.6167 108.845 30.05C109.228 30.4667 109.686 30.775 110.22 30.975C110.77 31.1583 111.37 31.25 112.02 31.25C112.836 31.25 113.595 31.1083 114.295 30.825C115.011 30.5417 115.711 30.1417 116.395 29.625L117.395 31.125C117.078 31.4083 116.703 31.6667 116.27 31.9C115.853 32.1333 115.395 32.3333 114.895 32.5C114.411 32.65 113.903 32.7667 113.37 32.85C112.836 32.95 112.303 33 111.77 33C110.586 33 109.503 32.8417 108.52 32.525C107.553 32.225 106.728 31.7833 106.045 31.2C105.361 30.6 104.828 29.8667 104.445 29C104.078 28.1333 103.895 27.1333 103.895 26C103.895 24.8833 104.078 23.8917 104.445 23.025C104.828 22.1417 105.353 21.4083 106.02 20.825C106.686 20.225 107.486 19.775 108.42 19.475C109.353 19.1583 110.386 19 111.52 19ZM132.034 21.25H126.784V32.5H123.284V21.25H118.034V19.5H132.034V21.25ZM148.036 19.5V32.5H144.536V22.75H144.286L138.536 32.5H134.036V19.5H137.536V29.25H137.786L143.536 19.5H148.036ZM164.041 21.25H158.791V32.5H155.291V21.25H150.041V19.5H164.041V21.25ZM173.668 37H170.168L171.918 32.5H169.793L164.543 19.5H168.043L172.418 30.375H172.668L176.793 19.5H180.293L173.668 37ZM194.803 21.25H189.553V32.5H186.053V21.25H180.803V19.5H194.803V21.25ZM217.17 22.625C217.17 24.2583 216.128 25.2583 214.045 25.625C215.245 25.8083 216.145 26.2 216.745 26.8C217.362 27.3833 217.67 28.1167 217.67 29C217.67 29.5667 217.537 30.0917 217.27 30.575C217.02 31.0583 216.612 31.4833 216.045 31.85C215.478 32.2 214.753 32.475 213.87 32.675C212.987 32.8917 211.92 33 210.67 33C209.287 33 208.028 32.8167 206.895 32.45C205.778 32.0667 204.87 31.625 204.17 31.125L205.17 29.625C205.87 30.0583 206.637 30.4417 207.47 30.775C208.303 31.0917 209.287 31.25 210.42 31.25C211.737 31.25 212.645 31.0417 213.145 30.625C213.662 30.1917 213.92 29.5667 213.92 28.75C213.92 28.1833 213.712 27.7083 213.295 27.325C212.878 26.9417 212.295 26.75 211.545 26.75H207.17V25H211.045C211.795 25 212.378 24.8083 212.795 24.425C213.212 24.025 213.42 23.5083 213.42 22.875C213.42 22.2417 213.195 21.7333 212.745 21.35C212.312 20.95 211.62 20.75 210.67 20.75C209.603 20.75 208.653 20.9167 207.82 21.25C207.003 21.5667 206.245 21.9417 205.545 22.375L204.545 20.875C205.245 20.375 206.153 19.9417 207.27 19.575C208.387 19.1917 209.603 19 210.92 19C211.987 19 212.912 19.1 213.695 19.3C214.478 19.5 215.128 19.775 215.645 20.125C216.162 20.4583 216.545 20.8417 216.795 21.275C217.045 21.7083 217.17 22.1583 217.17 22.625ZM223.41 28.375C223.41 29.9583 224.368 30.75 226.285 30.75H229.785V26H226.285C224.368 26 223.41 26.7917 223.41 28.375ZM229.785 24.25C229.785 23.05 229.468 22.1667 228.835 21.6C228.218 21.0333 227.41 20.75 226.41 20.75C225.66 20.75 224.927 20.8667 224.21 21.1C223.493 21.3167 222.852 21.6167 222.285 22L221.41 20.5C221.777 20.25 222.177 20.0333 222.61 19.85C223.06 19.6667 223.518 19.5167 223.985 19.4C224.452 19.2667 224.91 19.1667 225.36 19.1C225.827 19.0333 226.26 19 226.66 19C227.727 19 228.668 19.125 229.485 19.375C230.302 19.625 230.993 19.9833 231.56 20.45C232.127 20.9167 232.552 21.475 232.835 22.125C233.135 22.7583 233.285 23.4667 233.285 24.25V32.5H226.285C224.018 32.5 222.343 32.1583 221.26 31.475C220.193 30.7917 219.66 29.7583 219.66 28.375C219.66 26.9917 220.193 25.9583 221.26 25.275C222.343 24.5917 224.018 24.25 226.285 24.25H229.785ZM250.398 19.5V32.5H246.898V21.25H240.148V32.5H236.648V19.5H250.398ZM261.534 37H258.034L259.784 32.5H257.659L252.409 19.5H255.909L260.284 30.375H260.534L264.659 19.5H268.159L261.534 37ZM276.681 19C277.214 19 277.747 19.05 278.281 19.15C278.814 19.2333 279.322 19.3583 279.806 19.525C280.306 19.675 280.764 19.8667 281.181 20.1C281.614 20.3333 281.989 20.5917 282.306 20.875L281.306 22.375C280.622 21.8583 279.922 21.4583 279.206 21.175C278.506 20.8917 277.747 20.75 276.931 20.75C276.331 20.75 275.781 20.85 275.281 21.05C274.781 21.2333 274.347 21.5417 273.981 21.975C273.614 22.3917 273.322 22.9333 273.106 23.6C272.906 24.2667 272.806 25.0667 272.806 26C272.806 26.9333 272.906 27.7333 273.106 28.4C273.322 29.0667 273.622 29.6167 274.006 30.05C274.389 30.4667 274.847 30.775 275.381 30.975C275.931 31.1583 276.531 31.25 277.181 31.25C277.997 31.25 278.756 31.1083 279.456 30.825C280.172 30.5417 280.872 30.1417 281.556 29.625L282.556 31.125C282.239 31.4083 281.864 31.6667 281.431 31.9C281.014 32.1333 280.556 32.3333 280.056 32.5C279.572 32.65 279.064 32.7667 278.531 32.85C277.997 32.95 277.464 33 276.931 33C275.747 33 274.664 32.8417 273.681 32.525C272.714 32.225 271.889 31.7833 271.206 31.2C270.522 30.6 269.989 29.8667 269.606 29C269.239 28.1333 269.056 27.1333 269.056 26C269.056 24.8833 269.239 23.8917 269.606 23.025C269.989 22.1417 270.514 21.4083 271.181 20.825C271.847 20.225 272.647 19.775 273.581 19.475C274.514 19.1583 275.547 19 276.681 19ZM291.309 26.875H288.684V32.5H285.184V19.5H288.684V25.125H291.309L295.184 19.5H298.934L294.559 25.875L299.184 32.5H295.184L291.309 26.875ZM307.955 31.375C308.488 31.375 308.988 31.275 309.455 31.075C309.922 30.875 310.33 30.5667 310.68 30.15C311.03 29.7167 311.305 29.1583 311.505 28.475C311.722 27.7917 311.83 26.9667 311.83 26C311.83 25.0333 311.722 24.2083 311.505 23.525C311.305 22.8417 311.03 22.2917 310.68 21.875C310.33 21.4417 309.922 21.125 309.455 20.925C308.988 20.725 308.488 20.625 307.955 20.625C307.422 20.625 306.922 20.725 306.455 20.925C305.988 21.125 305.58 21.4417 305.23 21.875C304.88 22.2917 304.597 22.8417 304.38 23.525C304.18 24.2083 304.08 25.0333 304.08 26C304.08 26.9667 304.18 27.7917 304.38 28.475C304.597 29.1583 304.88 29.7167 305.23 30.15C305.58 30.5667 305.988 30.875 306.455 31.075C306.922 31.275 307.422 31.375 307.955 31.375ZM307.955 19C309.072 19 310.097 19.1583 311.03 19.475C311.98 19.775 312.788 20.225 313.455 20.825C314.122 21.4083 314.638 22.1417 315.005 23.025C315.388 23.8917 315.58 24.8833 315.58 26C315.58 27.1333 315.388 28.1333 315.005 29C314.638 29.8667 314.122 30.6 313.455 31.2C312.788 31.7833 311.98 32.225 311.03 32.525C310.097 32.8417 309.072 33 307.955 33C306.822 33 305.788 32.8417 304.855 32.525C303.922 32.225 303.122 31.7833 302.455 31.2C301.788 30.6 301.263 29.8667 300.88 29C300.513 28.1333 300.33 27.1333 300.33 26C300.33 24.8833 300.513 23.8917 300.88 23.025C301.263 22.1417 301.788 21.4083 302.455 20.825C303.122 20.225 303.922 19.775 304.855 19.475C305.788 19.1583 306.822 19 307.955 19ZM331.21 23.125C331.21 23.7583 330.977 24.3 330.51 24.75C330.06 25.2 329.335 25.4917 328.335 25.625C329.535 25.8083 330.435 26.1917 331.035 26.775C331.652 27.3417 331.96 28 331.96 28.75C331.96 29.2833 331.835 29.7833 331.585 30.25C331.352 30.7 330.985 31.0917 330.485 31.425C329.985 31.7583 329.352 32.025 328.585 32.225C327.818 32.4083 326.902 32.5 325.835 32.5H318.46V19.5H325.085C326.152 19.5 327.068 19.6 327.835 19.8C328.602 19.9833 329.235 20.2417 329.735 20.575C330.235 20.8917 330.602 21.275 330.835 21.725C331.085 22.1583 331.21 22.625 331.21 23.125ZM325.835 30.75C326.585 30.75 327.168 30.5583 327.585 30.175C328.002 29.7917 328.21 29.3167 328.21 28.75C328.21 28.1833 328.002 27.7083 327.585 27.325C327.168 26.9417 326.585 26.75 325.835 26.75H321.96V30.75H325.835ZM325.085 25C325.835 25 326.418 24.8167 326.835 24.45C327.252 24.0667 327.46 23.625 327.46 23.125C327.46 22.625 327.252 22.1917 326.835 21.825C326.418 21.4417 325.835 21.25 325.085 21.25H321.96V25H325.085Z" fill="#911016"/>
</svg>
